<svg width="190" height="76" viewBox="0 0 190 76" fill="none" xmlns="http://www.w3.org/2000/svg">
<ellipse cx="5.52326" cy="20" rx="5.52326" ry="5" fill="#3CDC97"/>
<path d="M21.5657 29V8.7H31.6287C33.0207 8.7 34.2387 8.94167 35.2827 9.425C36.3461 9.90833 37.1774 10.585 37.7767 11.455C38.3761 12.3057 38.6757 13.2917 38.6757 14.413C38.6757 15.2443 38.4631 16.0273 38.0377 16.762C37.6317 17.4773 37.0711 18.0863 36.3557 18.589C37.2644 19.0723 37.9797 19.7007 38.5017 20.474C39.0431 21.2473 39.3137 22.098 39.3137 23.026C39.3137 24.2053 39.0141 25.2493 38.4147 26.158C37.8154 27.0473 36.9744 27.7433 35.8917 28.246C34.8091 28.7487 33.5524 29 32.1217 29H21.5657ZM26.5537 16.791H31.3097C32.0444 16.791 32.6244 16.6073 33.0497 16.24C33.4751 15.8727 33.6877 15.3893 33.6877 14.79C33.6877 14.1713 33.4751 13.688 33.0497 13.34C32.6244 12.9727 32.0444 12.789 31.3097 12.789H26.5537V16.791ZM26.5537 24.911H31.7447C32.5181 24.911 33.1271 24.7177 33.5717 24.331C34.0357 23.9443 34.2677 23.4223 34.2677 22.765C34.2677 22.1077 34.0357 21.5857 33.5717 21.199C33.1271 20.8123 32.5181 20.619 31.7447 20.619H26.5537V24.911ZM41.781 29V13.659H46.479V15.196C46.9817 14.5773 47.5713 14.1133 48.248 13.804C48.9247 13.4753 49.6787 13.311 50.51 13.311C51.3413 13.3303 51.931 13.456 52.279 13.688V17.777C51.9697 17.6223 51.6217 17.5063 51.235 17.429C50.8483 17.3517 50.452 17.313 50.046 17.313C49.3113 17.313 48.625 17.487 47.987 17.835C47.3683 18.1637 46.8657 18.6373 46.479 19.256V29H41.781ZM61.5008 29.29C59.9348 29.29 58.5234 28.942 57.2668 28.246C56.0101 27.5307 55.0144 26.5737 54.2798 25.375C53.5451 24.1763 53.1778 22.8327 53.1778 21.344C53.1778 19.8553 53.5451 18.5117 54.2798 17.313C55.0144 16.095 56.0101 15.138 57.2668 14.442C58.5234 13.7267 59.9348 13.369 61.5008 13.369C63.0668 13.369 64.4781 13.7267 65.7348 14.442C66.9914 15.138 67.9871 16.095 68.7218 17.313C69.4564 18.5117 69.8238 19.8553 69.8238 21.344C69.8238 22.8327 69.4564 24.1763 68.7218 25.375C67.9871 26.5737 66.9914 27.5307 65.7348 28.246C64.4781 28.942 63.0668 29.29 61.5008 29.29ZM61.5008 25.23C62.2161 25.23 62.8541 25.056 63.4148 24.708C63.9754 24.36 64.4201 23.896 64.7488 23.316C65.0774 22.7167 65.2418 22.0593 65.2418 21.344C65.2418 20.6093 65.0774 19.952 64.7488 19.372C64.4201 18.7727 63.9658 18.299 63.3858 17.951C62.8251 17.603 62.1968 17.429 61.5008 17.429C60.8048 17.429 60.1668 17.603 59.5868 17.951C59.0261 18.299 58.5814 18.7727 58.2528 19.372C57.9241 19.952 57.7598 20.6093 57.7598 21.344C57.7598 22.0593 57.9241 22.7167 58.2528 23.316C58.5814 23.896 59.0261 24.36 59.5868 24.708C60.1668 25.056 60.8048 25.23 61.5008 25.23ZM77.0697 29.261C75.987 29.261 75.0204 29.058 74.1697 28.652C73.3384 28.246 72.681 27.6853 72.1977 26.97C71.7337 26.2547 71.5017 25.433 71.5017 24.505C71.5017 23.0357 72.0527 21.9047 73.1547 21.112C74.276 20.3 75.8324 19.894 77.8237 19.894C79.0224 19.894 80.1824 20.039 81.3037 20.329V19.575C81.3037 18.8017 81.0524 18.2313 80.5497 17.864C80.0664 17.4773 79.3414 17.284 78.3747 17.284C77.7754 17.284 77.0987 17.3807 76.3447 17.574C75.61 17.7673 74.74 18.0767 73.7347 18.502L72.0527 15.051C73.3094 14.4903 74.5177 14.0747 75.6777 13.804C76.857 13.514 78.0364 13.369 79.2157 13.369C81.3424 13.369 82.9954 13.8813 84.1747 14.906C85.354 15.9113 85.9437 17.3323 85.9437 19.169V29H81.3037V28.072C80.685 28.4973 80.0277 28.8067 79.3317 29C78.655 29.174 77.901 29.261 77.0697 29.261ZM75.9677 24.418C75.9677 24.9013 76.1804 25.2783 76.6057 25.549C77.031 25.8197 77.6207 25.955 78.3747 25.955C78.9354 25.955 79.4574 25.897 79.9407 25.781C80.4434 25.665 80.8977 25.4813 81.3037 25.23V23.258C80.859 23.142 80.4047 23.055 79.9407 22.997C79.4767 22.939 79.003 22.91 78.5197 22.91C77.7077 22.91 77.0794 23.0453 76.6347 23.316C76.19 23.5673 75.9677 23.9347 75.9677 24.418ZM95.8701 29.203C94.4201 29.203 93.0957 28.855 91.8971 28.159C90.7177 27.4437 89.7801 26.4963 89.0841 25.317C88.3881 24.1183 88.0401 22.7843 88.0401 21.315C88.0401 19.8457 88.3881 18.5213 89.0841 17.342C89.7994 16.1433 90.7564 15.196 91.9551 14.5C93.1731 13.804 94.5264 13.456 96.0151 13.456C96.7304 13.456 97.4167 13.543 98.0741 13.717C98.7314 13.891 99.3501 14.1423 99.9301 14.471V8.7L104.628 7.975V29H99.9881V27.869C98.7701 28.7583 97.3974 29.203 95.8701 29.203ZM96.6821 25.201C97.3394 25.201 97.9387 25.1043 98.4801 24.911C99.0214 24.6983 99.5047 24.389 99.9301 23.983V18.618C99.5241 18.2313 99.0407 17.9413 98.4801 17.748C97.9194 17.5353 97.3201 17.429 96.6821 17.429C95.9281 17.429 95.2417 17.603 94.6231 17.951C94.0237 18.2797 93.5404 18.7437 93.1731 19.343C92.8251 19.923 92.6511 20.5803 92.6511 21.315C92.6511 22.0497 92.8251 22.7167 93.1731 23.316C93.5404 23.896 94.0237 24.36 94.6231 24.708C95.2417 25.0367 95.9281 25.201 96.6821 25.201ZM107.773 29V8.7H112.761V16.501H121.113V8.7H126.101V29H121.113V21.054H112.761V29H107.773ZM136.861 29.29C135.295 29.29 133.884 28.942 132.627 28.246C131.37 27.5307 130.375 26.5737 129.64 25.375C128.905 24.1763 128.538 22.8327 128.538 21.344C128.538 19.8553 128.905 18.5117 129.64 17.313C130.375 16.095 131.37 15.138 132.627 14.442C133.884 13.7267 135.295 13.369 136.861 13.369C138.427 13.369 139.838 13.7267 141.095 14.442C142.352 15.138 143.347 16.095 144.082 17.313C144.817 18.5117 145.184 19.8553 145.184 21.344C145.184 22.8327 144.817 24.1763 144.082 25.375C143.347 26.5737 142.352 27.5307 141.095 28.246C139.838 28.942 138.427 29.29 136.861 29.29ZM136.861 25.23C137.576 25.23 138.214 25.056 138.775 24.708C139.336 24.36 139.78 23.896 140.109 23.316C140.438 22.7167 140.602 22.0593 140.602 21.344C140.602 20.6093 140.438 19.952 140.109 19.372C139.78 18.7727 139.326 18.299 138.746 17.951C138.185 17.603 137.557 17.429 136.861 17.429C136.165 17.429 135.527 17.603 134.947 17.951C134.386 18.299 133.942 18.7727 133.613 19.372C133.284 19.952 133.12 20.6093 133.12 21.344C133.12 22.0593 133.284 22.7167 133.613 23.316C133.942 23.896 134.386 24.36 134.947 24.708C135.527 25.056 136.165 25.23 136.861 25.23ZM153.448 29.29C151.998 29.29 150.655 29.1257 149.417 28.797C148.18 28.449 147.107 27.9463 146.198 27.289L148.431 24.128C149.398 24.708 150.278 25.1333 151.07 25.404C151.863 25.6553 152.646 25.781 153.419 25.781C154.193 25.781 154.802 25.6747 155.246 25.462C155.71 25.23 155.942 24.9303 155.942 24.563C155.942 24.273 155.817 24.041 155.565 23.867C155.314 23.6737 154.918 23.5383 154.376 23.461L151.331 22.997C149.804 22.765 148.634 22.2623 147.822 21.489C147.03 20.6963 146.633 19.6717 146.633 18.415C146.633 17.371 146.894 16.4817 147.416 15.747C147.958 14.993 148.721 14.4227 149.707 14.036C150.693 13.63 151.873 13.427 153.245 13.427C154.367 13.427 155.478 13.5817 156.58 13.891C157.682 14.2003 158.707 14.6643 159.654 15.283L157.421 18.299C156.59 17.8157 155.797 17.4677 155.043 17.255C154.289 17.023 153.535 16.907 152.781 16.907C152.182 16.907 151.699 17.0133 151.331 17.226C150.964 17.4193 150.78 17.6803 150.78 18.009C150.78 18.3183 150.916 18.5697 151.186 18.763C151.457 18.937 151.921 19.0723 152.578 19.169L155.623 19.633C157.131 19.8457 158.291 20.3483 159.103 21.141C159.935 21.9143 160.35 22.9003 160.35 24.099C160.35 25.1043 160.051 25.9937 159.451 26.767C158.852 27.5403 158.03 28.159 156.986 28.623C155.962 29.0677 154.782 29.29 153.448 29.29ZM169.602 29.203C167.765 29.203 166.373 28.797 165.426 27.985C164.498 27.1537 164.034 25.9357 164.034 24.331V17.574H160.931V13.659H164.034V9.715L168.732 8.7V13.659H173.024V17.574H168.732V23.403C168.732 24.0797 168.877 24.563 169.167 24.853C169.476 25.1237 170.008 25.259 170.762 25.259C171.149 25.259 171.497 25.2397 171.806 25.201C172.135 25.143 172.492 25.056 172.879 24.94V28.739C172.454 28.8743 171.912 28.9807 171.255 29.058C170.598 29.1547 170.047 29.203 169.602 29.203Z" fill="white"/>
</svg>
