<svg aria-hidden="true" style="position: absolute; width: 0; height: 0; overflow: hidden;" version="1.1" xmlns="http://www.w3.org/2000/svg" xmlns:xlink="http://www.w3.org/1999/xlink">
<defs>
<symbol id="icon-checkmark" viewBox="0 0 20 20">
<path d="M0 11l2-2 5 5 11-11 2 2-13 13z"></path>
</symbol>
<symbol id="icon-arrow-right" viewBox="0 0 20 20">
<path d="M16.172 9l-6.071-6.071 1.414-1.414 8.485 8.485-8.485 8.485-1.414-1.414 6.071-6.071h-16.172v-2z"></path>
</symbol>
<symbol id="icon-massage" viewBox="0 0 39 32">
<path d="M0.345 32l36.842-15.789-36.842-15.789v12.253l26.316 3.536-26.316 3.536v12.253z"></path>
</symbol>
<symbol id="icon-instagram" viewBox="0 0 36 32">
<path d="M11.714 10.504c1.709-1.538 3.77-2.307 6.182-2.307s4.448 0.769 6.107 2.307c1.709 1.493 2.564 3.325 2.564 5.496s-0.855 4.026-2.564 5.564c-1.659 1.493-3.694 2.239-6.107 2.239s-4.473-0.746-6.183-2.239c-1.659-1.538-2.488-3.393-2.488-5.564s0.829-4.004 2.488-5.496zM13.9 19.596c1.106 0.995 2.438 1.493 3.996 1.493s2.89-0.498 3.996-1.493c1.106-0.995 1.659-2.194 1.659-3.596s-0.553-2.601-1.659-3.596c-1.106-0.995-2.438-1.493-3.996-1.493s-2.89 0.498-3.996 1.493c-1.106 0.995-1.659 2.194-1.659 3.596s0.553 2.601 1.659 3.596zM28.301 6.636c0.402 0.317 0.603 0.724 0.603 1.221s-0.201 0.927-0.603 1.289c-0.352 0.362-0.804 0.543-1.357 0.543s-1.030-0.181-1.433-0.543c-0.402-0.362-0.603-0.792-0.603-1.289s0.201-0.905 0.603-1.221c0.402-0.362 0.88-0.543 1.433-0.543s1.005 0.181 1.357 0.543zM34.71 9.757c0.050 1.221 0.076 3.302 0.076 6.243s-0.025 5.021-0.076 6.243c-0.151 2.76-1.081 4.908-2.79 6.447-1.659 1.493-4.021 2.284-7.087 2.375-1.357 0.091-3.669 0.136-6.937 0.136s-5.579-0.045-6.937-0.136c-3.066-0.136-5.429-0.95-7.087-2.443-0.653-0.543-1.181-1.176-1.583-1.9s-0.704-1.425-0.905-2.104c-0.151-0.679-0.226-1.47-0.226-2.375-0.101-1.221-0.151-3.302-0.151-6.243s0.050-5.044 0.151-6.311c0.151-2.714 1.056-4.818 2.714-6.311 1.659-1.538 4.021-2.375 7.087-2.511 1.357-0.045 3.669-0.068 6.937-0.068s5.579 0.023 6.937 0.068c3.066 0.136 5.428 0.973 7.087 2.511 1.709 1.493 2.639 3.619 2.79 6.379zM31.091 24.957c0.151-0.362 0.276-0.814 0.377-1.357 0.101-0.588 0.176-1.267 0.226-2.036 0.050-0.814 0.075-1.47 0.075-1.968s0-1.199 0-2.104c0-0.905 0-1.402 0-1.493 0-0.136 0-0.633 0-1.493 0-0.905 0-1.606 0-2.104s-0.025-1.131-0.075-1.9c-0.050-0.814-0.126-1.493-0.226-2.036-0.1-0.588-0.226-1.063-0.377-1.425-0.603-1.402-1.684-2.375-3.242-2.918-0.402-0.136-0.93-0.249-1.583-0.339-0.603-0.090-1.357-0.158-2.262-0.204-0.854-0.045-1.558-0.068-2.111-0.068-0.503 0-1.282 0-2.337 0-1.005 0-1.558 0-1.659 0s-0.653 0-1.659 0c-1.005 0-1.784 0-2.337 0s-1.282 0.023-2.186 0.068c-0.854 0.045-1.608 0.113-2.262 0.204-0.603 0.091-1.106 0.204-1.508 0.339-1.558 0.543-2.639 1.515-3.242 2.918-0.151 0.362-0.276 0.837-0.377 1.425-0.101 0.543-0.176 1.221-0.226 2.036-0.050 0.769-0.075 1.402-0.075 1.9 0 0.452 0 1.153 0 2.104 0 0.905 0 1.402 0 1.493 0 0.181 0 0.611 0 1.289 0 0.633 0 1.176 0 1.629 0 0.407 0 0.95 0 1.628 0.050 0.678 0.101 1.267 0.151 1.764 0.050 0.452 0.126 0.927 0.226 1.425s0.201 0.905 0.302 1.222c0.653 1.402 1.734 2.375 3.242 2.918 0.402 0.136 0.905 0.249 1.508 0.339 0.653 0.091 1.407 0.158 2.262 0.204 0.905 0.045 1.608 0.068 2.111 0.068 0.553 0 1.332 0 2.337 0 1.055 0 1.634 0 1.734 0 0.151 0 0.704 0 1.659 0 1.005 0 1.784 0 2.337 0s1.257-0.023 2.111-0.068c0.905-0.045 1.659-0.113 2.262-0.204 0.653-0.090 1.181-0.204 1.583-0.339 1.558-0.588 2.639-1.561 3.242-2.918z"></path>
</symbol>
<symbol id="icon-facebook" viewBox="0 0 36 32">
<path d="M23.908 5.313c-0.808 0-1.459 0.125-1.953 0.375-0.449 0.25-0.741 0.563-0.875 0.937s-0.202 0.854-0.202 1.438v3.938h5.724l-0.808 5.688h-4.916v14.312h-6.33v-14.312h-5.185v-5.688h5.185v-4.5c0-2.375 0.718-4.208 2.155-5.5 1.437-1.333 3.345-2 5.724-2 1.93 0 3.502 0.083 4.714 0.25v5.063h-3.232z"></path>
</symbol>
<symbol id="icon-burger" viewBox="0 0 32 32">
<path d="M29.333 24.007c0 0.733-0.595 1.327-1.327 1.327h-10.68c-0.733 0-1.327-0.594-1.327-1.327s0.594-1.327 1.327-1.327h10.68c0.733 0 1.327 0.593 1.327 1.327zM29.333 16c0 0.733-0.595 1.327-1.327 1.327h-24.013c-0.733 0-1.327-0.594-1.327-1.327s0.594-1.327 1.327-1.327h24.013c0.733 0 1.327 0.595 1.327 1.327zM28.007 9.32c0.733 0 1.327-0.594 1.327-1.327s-0.594-1.327-1.327-1.327h-16.013c-0.733 0-1.327 0.594-1.327 1.327s0.594 1.327 1.327 1.327h16.013z"></path>
</symbol>
</defs>
</svg>
