<svg width="175" height="31" viewBox="0 0 175 31" fill="none" xmlns="http://www.w3.org/2000/svg">
<ellipse cx="5.07474" cy="20" rx="5.07474" ry="5" fill="#3CDC97"/>
<path d="M19.951 29V8.7H24.939V16.501H33.291V8.7H38.279V29H33.291V21.054H24.939V29H19.951ZM49.0394 29.29C47.4734 29.29 46.0621 28.942 44.8054 28.246C43.5487 27.5307 42.5531 26.5737 41.8184 25.375C41.0837 24.1763 40.7164 22.8327 40.7164 21.344C40.7164 19.8553 41.0837 18.5117 41.8184 17.313C42.5531 16.095 43.5487 15.138 44.8054 14.442C46.0621 13.7267 47.4734 13.369 49.0394 13.369C50.6054 13.369 52.0167 13.7267 53.2734 14.442C54.5301 15.138 55.5257 16.095 56.2604 17.313C56.9951 18.5117 57.3624 19.8553 57.3624 21.344C57.3624 22.8327 56.9951 24.1763 56.2604 25.375C55.5257 26.5737 54.5301 27.5307 53.2734 28.246C52.0167 28.942 50.6054 29.29 49.0394 29.29ZM49.0394 25.23C49.7547 25.23 50.3927 25.056 50.9534 24.708C51.5141 24.36 51.9587 23.896 52.2874 23.316C52.6161 22.7167 52.7804 22.0593 52.7804 21.344C52.7804 20.6093 52.6161 19.952 52.2874 19.372C51.9587 18.7727 51.5044 18.299 50.9244 17.951C50.3637 17.603 49.7354 17.429 49.0394 17.429C48.3434 17.429 47.7054 17.603 47.1254 17.951C46.5647 18.299 46.1201 18.7727 45.7914 19.372C45.4627 19.952 45.2984 20.6093 45.2984 21.344C45.2984 22.0593 45.4627 22.7167 45.7914 23.316C46.1201 23.896 46.5647 24.36 47.1254 24.708C47.7054 25.056 48.3434 25.23 49.0394 25.23ZM65.6267 29.29C64.1767 29.29 62.8331 29.1257 61.5957 28.797C60.3584 28.449 59.2854 27.9463 58.3767 27.289L60.6097 24.128C61.5764 24.708 62.4561 25.1333 63.2487 25.404C64.0414 25.6553 64.8244 25.781 65.5977 25.781C66.3711 25.781 66.9801 25.6747 67.4247 25.462C67.8887 25.23 68.1207 24.9303 68.1207 24.563C68.1207 24.273 67.9951 24.041 67.7437 23.867C67.4924 23.6737 67.0961 23.5383 66.5547 23.461L63.5097 22.997C61.9824 22.765 60.8127 22.2623 60.0007 21.489C59.2081 20.6963 58.8117 19.6717 58.8117 18.415C58.8117 17.371 59.0727 16.4817 59.5947 15.747C60.1361 14.993 60.8997 14.4227 61.8857 14.036C62.8717 13.63 64.0511 13.427 65.4237 13.427C66.5451 13.427 67.6567 13.5817 68.7587 13.891C69.8607 14.2003 70.8854 14.6643 71.8327 15.283L69.5997 18.299C68.7684 17.8157 67.9757 17.4677 67.2217 17.255C66.4677 17.023 65.7137 16.907 64.9597 16.907C64.3604 16.907 63.8771 17.0133 63.5097 17.226C63.1424 17.4193 62.9587 17.6803 62.9587 18.009C62.9587 18.3183 63.0941 18.5697 63.3647 18.763C63.6354 18.937 64.0994 19.0723 64.7567 19.169L67.8017 19.633C69.3097 19.8457 70.4697 20.3483 71.2817 21.141C72.1131 21.9143 72.5287 22.9003 72.5287 24.099C72.5287 25.1043 72.2291 25.9937 71.6297 26.767C71.0304 27.5403 70.2087 28.159 69.1647 28.623C68.1401 29.0677 66.9607 29.29 65.6267 29.29ZM81.7804 29.203C79.9437 29.203 78.5517 28.797 77.6044 27.985C76.6764 27.1537 76.2124 25.9357 76.2124 24.331V17.574H73.1094V13.659H76.2124V9.715L80.9104 8.7V13.659H85.2024V17.574H80.9104V23.403C80.9104 24.0797 81.0554 24.563 81.3454 24.853C81.6547 25.1237 82.1864 25.259 82.9404 25.259C83.3271 25.259 83.6751 25.2397 83.9844 25.201C84.3131 25.143 84.6707 25.056 85.0574 24.94V28.739C84.6321 28.8743 84.0907 28.9807 83.4334 29.058C82.7761 29.1547 82.2251 29.203 81.7804 29.203ZM94.5508 29.29C92.9848 29.29 91.5638 28.942 90.2878 28.246C89.0312 27.5307 88.0355 26.5737 87.3008 25.375C86.5662 24.1763 86.1988 22.8327 86.1988 21.344C86.1988 19.8553 86.5468 18.5117 87.2428 17.313C87.9582 16.1143 88.9248 15.167 90.1428 14.471C91.3608 13.7557 92.7142 13.398 94.2028 13.398C95.7108 13.398 97.0448 13.7653 98.2048 14.5C99.3648 15.2153 100.273 16.2013 100.931 17.458C101.607 18.7147 101.946 20.155 101.946 21.779V22.939H91.0128C91.2255 23.4223 91.5058 23.8477 91.8538 24.215C92.2212 24.5823 92.6562 24.8723 93.1588 25.085C93.6615 25.2783 94.2028 25.375 94.7828 25.375C95.4208 25.375 96.0008 25.2783 96.5228 25.085C97.0448 24.8723 97.4895 24.5823 97.8568 24.215L100.96 26.97C99.9932 27.782 98.9975 28.3717 97.9728 28.739C96.9675 29.1063 95.8268 29.29 94.5508 29.29ZM90.9258 19.662H97.3348C97.1802 19.1593 96.9385 18.734 96.6098 18.386C96.3005 18.0187 95.9332 17.7383 95.5078 17.545C95.0825 17.3323 94.6185 17.226 94.1158 17.226C93.5938 17.226 93.1202 17.3227 92.6948 17.516C92.2695 17.7093 91.9022 17.9897 91.5928 18.357C91.3028 18.705 91.0805 19.14 90.9258 19.662ZM104.142 29V13.659H108.84V15.196C109.343 14.5773 109.932 14.1133 110.609 13.804C111.286 13.4753 112.04 13.311 112.871 13.311C113.702 13.3303 114.292 13.456 114.64 13.688V17.777C114.331 17.6223 113.983 17.5063 113.596 17.429C113.209 17.3517 112.813 17.313 112.407 17.313C111.672 17.313 110.986 17.487 110.348 17.835C109.729 18.1637 109.227 18.6373 108.84 19.256V29H104.142ZM115.804 29.319C115.07 29.319 114.432 29.058 113.89 28.536C113.368 27.9947 113.107 27.3567 113.107 26.622C113.107 25.8873 113.368 25.259 113.89 24.737C114.432 24.1957 115.07 23.925 115.804 23.925C116.539 23.925 117.167 24.1957 117.689 24.737C118.231 25.259 118.501 25.8873 118.501 26.622C118.501 27.3567 118.231 27.9947 117.689 28.536C117.167 29.058 116.539 29.319 115.804 29.319ZM127.878 29.29C126.351 29.29 124.969 28.942 123.731 28.246C122.513 27.55 121.547 26.6027 120.831 25.404C120.116 24.186 119.758 22.8327 119.758 21.344C119.758 19.836 120.116 18.4827 120.831 17.284C121.547 16.0853 122.513 15.138 123.731 14.442C124.969 13.7267 126.351 13.369 127.878 13.369C129.135 13.369 130.334 13.6203 131.474 14.123C132.615 14.6063 133.582 15.3023 134.374 16.211L131.503 19.198C130.962 18.5793 130.411 18.1347 129.85 17.864C129.29 17.574 128.671 17.429 127.994 17.429C127.318 17.429 126.709 17.603 126.167 17.951C125.626 18.2797 125.201 18.7437 124.891 19.343C124.582 19.923 124.427 20.59 124.427 21.344C124.427 22.0787 124.582 22.7457 124.891 23.345C125.22 23.925 125.665 24.389 126.225 24.737C126.786 25.0657 127.414 25.23 128.11 25.23C128.748 25.23 129.338 25.0947 129.879 24.824C130.421 24.5533 130.943 24.1377 131.445 23.577L134.229 26.477C133.456 27.3663 132.509 28.0623 131.387 28.565C130.266 29.0483 129.096 29.29 127.878 29.29ZM143.289 29.29C141.723 29.29 140.312 28.942 139.055 28.246C137.799 27.5307 136.803 26.5737 136.068 25.375C135.334 24.1763 134.966 22.8327 134.966 21.344C134.966 19.8553 135.334 18.5117 136.068 17.313C136.803 16.095 137.799 15.138 139.055 14.442C140.312 13.7267 141.723 13.369 143.289 13.369C144.855 13.369 146.267 13.7267 147.523 14.442C148.78 15.138 149.776 16.095 150.51 17.313C151.245 18.5117 151.612 19.8553 151.612 21.344C151.612 22.8327 151.245 24.1763 150.51 25.375C149.776 26.5737 148.78 27.5307 147.523 28.246C146.267 28.942 144.855 29.29 143.289 29.29ZM143.289 25.23C144.005 25.23 144.643 25.056 145.203 24.708C145.764 24.36 146.209 23.896 146.537 23.316C146.866 22.7167 147.03 22.0593 147.03 21.344C147.03 20.6093 146.866 19.952 146.537 19.372C146.209 18.7727 145.754 18.299 145.174 17.951C144.614 17.603 143.985 17.429 143.289 17.429C142.593 17.429 141.955 17.603 141.375 17.951C140.815 18.299 140.37 18.7727 140.041 19.372C139.713 19.952 139.548 20.6093 139.548 21.344C139.548 22.0593 139.713 22.7167 140.041 23.316C140.37 23.896 140.815 24.36 141.375 24.708C141.955 25.056 142.593 25.23 143.289 25.23Z" fill="#000645"/>
</svg>
